<svg width="20" height="20" viewBox="0 0 20 20" fill="none" xmlns="http://www.w3.org/2000/svg">
<path fill-rule="evenodd" clip-rule="evenodd" d="M3.88889 1.66667H16.1111C17.3384 1.66667 18.3333 2.66159 18.3333 3.88889V16.1111C18.3333 17.3384 17.3384 18.3333 16.1111 18.3333H3.88889C2.66159 18.3333 1.66667 17.3384 1.66667 16.1111V3.88889C1.66667 2.66159 2.66159 1.66667 3.88889 1.66667ZM16.1111 0C18.2589 0 20 1.74111 20 3.88889V16.1111C20 18.2589 18.2589 20 16.1111 20H3.88889C1.74111 20 0 18.2589 0 16.1111V3.88889C0 1.74112 1.74111 0 3.88889 0H16.1111Z" fill="#CED0D6"/>
<path d="M9.44444 13.6111C9.44444 15.2986 8.07643 16.6667 6.38889 16.6667C4.70135 16.6667 3.33333 15.2986 3.33333 13.6111C3.33333 11.9236 4.70135 10.5556 6.38889 10.5556C8.07643 10.5556 9.44444 11.9236 9.44444 13.6111Z" fill="#CED0D6"/>
<path d="M2.77778 4.16667C2.77778 3.70643 3.15087 3.33333 3.61111 3.33333H8.61111C9.07135 3.33333 9.44444 3.70643 9.44444 4.16667C9.44444 4.6269 9.07135 5 8.61111 5H3.61111C3.15087 5 2.77778 4.6269 2.77778 4.16667Z" fill="#CED0D6"/>
<path d="M2.77778 8.05556C2.77778 7.59532 3.15087 7.22222 3.61111 7.22222H8.61111C9.07135 7.22222 9.44444 7.59532 9.44444 8.05556C9.44444 8.51579 9.07135 8.88889 8.61111 8.88889H3.61111C3.15087 8.88889 2.77778 8.51579 2.77778 8.05556Z" fill="#CED0D6"/>
<path d="M10.5556 4.16667C10.5556 3.70643 10.9287 3.33333 11.3889 3.33333H16.3889C16.8491 3.33333 17.2222 3.70643 17.2222 4.16667C17.2222 4.6269 16.8491 5 16.3889 5H11.3889C10.9287 5 10.5556 4.6269 10.5556 4.16667Z" fill="#CED0D6"/>
<path d="M10.5556 8.05556C10.5556 7.59532 10.9287 7.22222 11.3889 7.22222H16.3889C16.8491 7.22222 17.2222 7.59532 17.2222 8.05556C17.2222 8.51579 16.8491 8.88889 16.3889 8.88889H11.3889C10.9287 8.88889 10.5556 8.51579 10.5556 8.05556Z" fill="#CED0D6"/>
<path d="M10.5556 11.9444C10.5556 11.4842 10.9287 11.1111 11.3889 11.1111H16.3889C16.8491 11.1111 17.2222 11.4842 17.2222 11.9444C17.2222 12.4047 16.8491 12.7778 16.3889 12.7778H11.3889C10.9287 12.7778 10.5556 12.4047 10.5556 11.9444Z" fill="#CED0D6"/>
</svg>
