<svg width="16" height="16" viewBox="0 0 16 16" fill="none" xmlns="http://www.w3.org/2000/svg">
<path fill-rule="evenodd" clip-rule="evenodd" d="M3.11111 1.33333H12.8889C13.8707 1.33333 14.6667 2.12927 14.6667 3.11111V12.8889C14.6667 13.8707 13.8707 14.6667 12.8889 14.6667H3.11111C2.12927 14.6667 1.33333 13.8707 1.33333 12.8889V3.11111C1.33333 2.12927 2.12927 1.33333 3.11111 1.33333ZM12.8889 0C14.6071 0 16 1.39289 16 3.11111V12.8889C16 14.6071 14.6071 16 12.8889 16H3.11111C1.39289 16 0 14.6071 0 12.8889V3.11111C0 1.39289 1.39289 0 3.11111 0H12.8889Z" fill="#6C707E"/>
<path d="M7.55556 10.8889C7.55556 12.2389 6.46114 13.3333 5.11111 13.3333C3.76108 13.3333 2.66667 12.2389 2.66667 10.8889C2.66667 9.53886 3.76108 8.44444 5.11111 8.44444C6.46114 8.44444 7.55556 9.53886 7.55556 10.8889Z" fill="#6C707E"/>
<path d="M2.22222 3.33333C2.22222 2.96514 2.5207 2.66667 2.88889 2.66667H6.88889C7.25708 2.66667 7.55556 2.96514 7.55556 3.33333C7.55556 3.70152 7.25708 4 6.88889 4H2.88889C2.5207 4 2.22222 3.70152 2.22222 3.33333Z" fill="#6C707E"/>
<path d="M2.22222 6.44444C2.22222 6.07625 2.5207 5.77778 2.88889 5.77778H6.88889C7.25708 5.77778 7.55556 6.07625 7.55556 6.44444C7.55556 6.81263 7.25708 7.11111 6.88889 7.11111H2.88889C2.5207 7.11111 2.22222 6.81263 2.22222 6.44444Z" fill="#6C707E"/>
<path d="M8.44444 3.33333C8.44444 2.96514 8.74292 2.66667 9.11111 2.66667H13.1111C13.4793 2.66667 13.7778 2.96514 13.7778 3.33333C13.7778 3.70152 13.4793 4 13.1111 4H9.11111C8.74292 4 8.44444 3.70152 8.44444 3.33333Z" fill="#6C707E"/>
<path d="M8.44444 6.44444C8.44444 6.07625 8.74292 5.77778 9.11111 5.77778H13.1111C13.4793 5.77778 13.7778 6.07625 13.7778 6.44444C13.7778 6.81263 13.4793 7.11111 13.1111 7.11111H9.11111C8.74292 7.11111 8.44444 6.81263 8.44444 6.44444Z" fill="#6C707E"/>
<path d="M8.44444 9.55556C8.44444 9.18737 8.74292 8.88889 9.11111 8.88889H13.1111C13.4793 8.88889 13.7778 9.18737 13.7778 9.55556C13.7778 9.92375 13.4793 10.2222 13.1111 10.2222H9.11111C8.74292 10.2222 8.44444 9.92375 8.44444 9.55556Z" fill="#6C707E"/>
</svg>
