<svg width="13" height="13" viewBox="0 0 13 13" fill="none" xmlns="http://www.w3.org/2000/svg">
<path fill-rule="evenodd" clip-rule="evenodd" d="M2.52778 1.08333H10.4722C11.27 1.08333 11.9167 1.73003 11.9167 2.52778V10.4722C11.9167 11.27 11.27 11.9167 10.4722 11.9167H2.52778C1.73003 11.9167 1.08333 11.27 1.08333 10.4722V2.52778C1.08333 1.73003 1.73003 1.08333 2.52778 1.08333ZM10.4722 0C11.8683 0 13 1.13172 13 2.52778V10.4722C13 11.8683 11.8683 13 10.4722 13H2.52778C1.13172 13 0 11.8683 0 10.4722V2.52778C0 1.13172 1.13172 0 2.52778 0H10.4722Z" fill="#6C707E"/>
<path d="M6.13889 8.84722C6.13889 9.94412 5.24968 10.8333 4.15278 10.8333C3.05588 10.8333 2.16667 9.94412 2.16667 8.84722C2.16667 7.75032 3.05588 6.86111 4.15278 6.86111C5.24968 6.86111 6.13889 7.75032 6.13889 8.84722Z" fill="#6C707E"/>
<path d="M1.80556 2.70833C1.80556 2.40918 2.04807 2.16667 2.34722 2.16667H5.59722C5.89638 2.16667 6.13889 2.40918 6.13889 2.70833C6.13889 3.00749 5.89638 3.25 5.59722 3.25H2.34722C2.04807 3.25 1.80556 3.00749 1.80556 2.70833Z" fill="#6C707E"/>
<path d="M1.80556 5.23611C1.80556 4.93696 2.04807 4.69444 2.34722 4.69444H5.59722C5.89638 4.69444 6.13889 4.93696 6.13889 5.23611C6.13889 5.53527 5.89638 5.77778 5.59722 5.77778H2.34722C2.04807 5.77778 1.80556 5.53527 1.80556 5.23611Z" fill="#6C707E"/>
<path d="M6.86111 2.70833C6.86111 2.40918 7.10362 2.16667 7.40278 2.16667H10.6528C10.9519 2.16667 11.1944 2.40918 11.1944 2.70833C11.1944 3.00749 10.9519 3.25 10.6528 3.25H7.40278C7.10362 3.25 6.86111 3.00749 6.86111 2.70833Z" fill="#6C707E"/>
<path d="M6.86111 5.23611C6.86111 4.93696 7.10362 4.69444 7.40278 4.69444H10.6528C10.9519 4.69444 11.1944 4.93696 11.1944 5.23611C11.1944 5.53527 10.9519 5.77778 10.6528 5.77778H7.40278C7.10362 5.77778 6.86111 5.53527 6.86111 5.23611Z" fill="#6C707E"/>
<path d="M6.86111 7.76389C6.86111 7.46473 7.10362 7.22222 7.40278 7.22222H10.6528C10.9519 7.22222 11.1944 7.46473 11.1944 7.76389C11.1944 8.06304 10.9519 8.30556 10.6528 8.30556H7.40278C7.10362 8.30556 6.86111 8.06304 6.86111 7.76389Z" fill="#6C707E"/>
</svg>
