<svg width="40" height="40" viewBox="0 0 40 40" fill="none" xmlns="http://www.w3.org/2000/svg">
<path d="M38 9C38 5.13401 34.866 2 31 2H9C5.13401 2 2 5.13401 2 9V31C2 34.866 5.13401 38 9 38H31C34.866 38 38 34.866 38 31V9Z" fill="#E6762C"/>
<path d="M18 28.5C18 31.5376 15.5376 34 12.5 34C9.46243 34 7 31.5376 7 28.5C7 25.4624 9.46243 23 12.5 23C15.5376 23 18 25.4624 18 28.5Z" fill="white"/>
<path d="M7 8C7 7.44772 7.44772 7 8 7H18C18.5523 7 19 7.44772 19 8V9C19 9.55228 18.5523 10 18 10H8C7.44772 10 7 9.55228 7 9V8Z" fill="white"/>
<path d="M7 13C7 12.4477 7.44772 12 8 12H18C18.5523 12 19 12.4477 19 13V14C19 14.5523 18.5523 15 18 15H8C7.44772 15 7 14.5523 7 14V13Z" fill="white"/>
<path d="M7 18C7 17.4477 7.44772 17 8 17H18C18.5523 17 19 17.4477 19 18V19C19 19.5523 18.5523 20 18 20H8C7.44772 20 7 19.5523 7 19V18Z" fill="white"/>
<path d="M21 8C21 7.44772 21.4477 7 22 7H32C32.5523 7 33 7.44772 33 8V9C33 9.55228 32.5523 10 32 10H22C21.4477 10 21 9.55228 21 9V8Z" fill="white"/>
<path d="M21 13C21 12.4477 21.4477 12 22 12H32C32.5523 12 33 12.4477 33 13V14C33 14.5523 32.5523 15 32 15H22C21.4477 15 21 14.5523 21 14V13Z" fill="white"/>
<path d="M21 18C21 17.4477 21.4477 17 22 17H32C32.5523 17 33 17.4477 33 18V19C33 19.5523 32.5523 20 32 20H22C21.4477 20 21 19.5523 21 19V18Z" fill="white"/>
<path d="M21 23C21 22.4477 21.4477 22 22 22H32C32.5523 22 33 22.4477 33 23V24C33 24.5523 32.5523 25 32 25H22C21.4477 25 21 24.5523 21 24V23Z" fill="white"/>
</svg>
